HIERARCHY
ROOT pelvis
{
  OFFSET 0 100 0
  CHANNELS 6 Xposition Yposition Zposition Zrotation Xrotation Yrotation
  JOINT pelvis_right_femur
  {
    OFFSET -10.78128 -3.44521 -0.5502486
    CHANNELS 3 Zrotation Xrotation Yrotation
    JOINT right_femur_tibia
    {
      OFFSET -0.8047443 -44.0398 -0.1307829
      CHANNELS 3 Zrotation Xrotation Yrotation
      JOINT right_tibia_foot
      {
        OFFSET 3.006224 -47.83518 -5
        CHANNELS 3 Zrotation Xrotation Yrotation
        End Site
        {
          OFFSET 0 -5 15
        }
      }
    }
  }
  JOINT pelvis_left_femur
  {
    OFFSET 10.78128 -3.44521 -0.5502486
    CHANNELS 3 Zrotation Xrotation Yrotation
    JOINT left_femur_tibia
    {
      OFFSET 0.8047443 -44.0398 -0.1307829
      CHANNELS 3 Zrotation Xrotation Yrotation
      JOINT left_tibia_foot
      {
        OFFSET -4.370144 -48.10324 -4.275266
        CHANNELS 3 Zrotation Xrotation Yrotation
        End Site
        {
          OFFSET 0 -5 15
        }
      }
    }
  }
  JOINT pelvis_spine1
  {
    OFFSET 0 6.468898 -3.129235
    CHANNELS 3 Zrotation Xrotation Yrotation
    JOINT spine1
    {
      OFFSET 0 23.15396 4.99043
      CHANNELS 3 Zrotation Xrotation Yrotation
      JOINT spine2
      {
        OFFSET 0 20.79997 -5.064912
        CHANNELS 3 Zrotation Xrotation Yrotation
        JOINT neck
        {
          OFFSET 0 14.38658 9.616178
          CHANNELS 3 Zrotation Xrotation Yrotation
          End Site
          {
            OFFSET 0 20 0
          }
        }
      }
      JOINT right_manubrium
      {
        OFFSET -5.722621 16.35077 3.967754
        CHANNELS 3 Zrotation Xrotation Yrotation
        JOINT right_clavicle
        {
          OFFSET -13.16364 1.694482 -4.693211
          CHANNELS 3 Zrotation Xrotation Yrotation
          JOINT right_humerus
          {
            OFFSET -28.5034 -0.3100689 -2.792744
            CHANNELS 3 Zrotation Xrotation Yrotation
            JOINT right_radius
            {
              OFFSET -25.15693 0.02248979 -1.271978
              CHANNELS 3 Zrotation Xrotation Yrotation
              End Site
              {
                OFFSET -15 0 0
              }
            }
          }
        }
      }
      JOINT left_manubrium
      {
        OFFSET 5.722621 16.35077 3.967754
        CHANNELS 3 Zrotation Xrotation Yrotation
        JOINT left_clavicle
        {
          OFFSET 13.16364 1.694482 -4.693211
          CHANNELS 3 Zrotation Xrotation Yrotation
          JOINT left_humerus
          {
            OFFSET 29.39168 -1.063119 -2.237045
            CHANNELS 3 Zrotation Xrotation Yrotation
            JOINT left_radius
            {
              OFFSET 24.59957 -0.9528479 0.9047498
              CHANNELS 3 Zrotation Xrotation Yrotation
              End Site
              {
                OFFSET 15 -0 -0
              }
            }
          }
        }
      }
    }
  }
}
MOTION
Frames: 9
Frame Time: 0.0416666666667
0 103.5113 0 1.407971 -0.9787072 -0.09687305 2.415101 -14.16341 8.190142 -0 35.65092 -0 -7.589912 -14.32221 -4.300694 -7.291937 11.15242 -25.0803 -0 4.411322 -0 3.088305 -20.0301 24.91427 -4.008084 -3.609402 3.951995 2.382666 8.902847 -8.26686 0.5940925 22.98316 7.772521 4.132691 -23.94971 8.202729 7.00192 -20.21119 11.70632 86.84102 37.94483 -21.93464 -0 0 15.87222 -8.956702 8.507116 6.734752 3.950058 -19.19729 -3.333317 -100.4615 39.53552 29.46558 0 0 -19.92246 -10.99447 16.32448 27.78134
0.2145294 103.2147 0.9391203 1.279714 -1.389508 -0.1840702 2.492657 -14.1529 8.196528 -0 37.06774 -0 -7.535973 -14.6329 -4.581252 -7.129884 11.36427 -24.62943 -0 4.959654 -0 3.068256 -19.73738 24.66647 -3.967063 -3.463311 3.747833 2.399504 8.84383 -8.255567 0.669044 23.12714 7.567976 3.880035 -23.65569 8.216008 6.759497 -19.96395 11.60779 86.80828 37.22491 -21.60415 -0 0 15.64959 -8.871934 8.269302 6.568158 3.880649 -19.09653 -3.249116 -99.55169 38.97622 28.39372 0 0 -19.46977 -10.01992 16.50164 26.50685
0.3891902 102.6295 2.283345 1.096622 -1.009869 -0.1346633 2.705941 -17.68472 7.371088 -0 33.36203 -0 -6.810657 -13.78374 -4.615961 -6.747432 12.3541 -23.81694 -0 4.596619 -0 1.211619 -21.9853 22.71087 -3.899796 -2.8033 3.611805 2.388555 8.098655 -8.106688 1.008105 22.9443 7.461612 3.811921 -23.61524 8.509042 6.154145 -19.19387 11.19572 86.73491 35.83771 -21.62513 -0 0 15.52796 -8.754324 8.399243 5.977415 4.632458 -19.28718 -2.816617 -98.24399 38.90315 26.49316 0 0 -20.66493 -9.404653 16.59679 25.68288
0.5370768 101.8764 3.903269 0.9021428 -0.5666404 0.01396461 3.016045 -20.25766 6.955431 -0 30.8882 -0 -6.377358 -13.0604 -4.567104 -6.449458 13.00614 -23.34899 -0 4.452345 -0 -8.096497e-05 -23.38418 21.42403 -3.802922 -2.372233 3.522444 2.415972 7.614658 -8.030555 1.212815 22.72736 7.444593 3.831178 -23.75074 8.721742 5.889819 -18.70047 10.97652 86.61575 35.1865 -21.63964 -0 0 15.48918 -8.558277 8.568392 5.548062 5.139198 -19.4072 -2.491999 -97.52716 38.72903 25.43944 0 0 -21.34669 -8.846694 16.71163 24.99274
0.6476092 100.9827 5.874992 0.6155338 -0.06658226 0.2684279 3.439608 -23.08299 6.469683 -0 28.40629 -0 -6.046941 -12.03913 -4.520064 -6.055012 13.79382 -22.67145 -0 4.59291 -0 -1.379614 -24.63612 19.89269 -3.63456 -1.891456 3.329158 2.46796 7.126957 -7.997538 1.390136 22.48237 7.445777 3.86238 -23.89569 8.905943 5.654689 -18.09541 10.77281 86.53614 34.61068 -21.67796 -0 0 15.24878 -8.453484 8.818468 5.163923 5.633202 -19.57065 -2.185414 -96.55193 38.35651 24.07959 0 0 -22.01684 -8.046594 16.8325 24.00292
0.7223557 100.0014 8.216745 0.2566808 0.5217993 0.6172556 3.978759 -25.79127 6.051746 -0 26.14364 -0 -5.867668 -10.84338 -4.420993 -5.627934 14.54511 -21.96284 -0 5.003823 -0 -2.713456 -25.53717 18.3733 -3.392116 -1.447201 3.09282 2.546348 6.713411 -8.014197 1.500382 22.19598 7.504821 3.939236 -24.12394 9.050612 5.539208 -17.51529 10.63747 86.47543 34.32771 -21.751 -0 0 14.90952 -8.40361 9.150588 4.886311 6.046784 -19.74598 -1.928456 -95.63971 37.86477 22.84621 0 0 -22.58323 -7.181083 16.91157 22.96758
0.7606558 98.98431 10.98126 -0.2010875 1.15768 1.050893 4.645765 -28.40168 5.649596 -0 24.06232 -0 -5.850068 -9.458083 -4.290161 -5.139668 15.30659 -21.11729 -0 5.87618 -0 -4.095086 -26.02491 16.75022 -3.044774 -1.012048 2.778426 2.650181 6.359707 -8.08148 1.54692 21.88564 7.60541 4.037175 -24.39192 9.14812 5.497418 -16.90699 10.55376 86.46692 34.24442 -21.85562 -0 0 14.39214 -8.454974 9.560089 4.730191 6.371348 -19.93632 -1.731369 -94.66225 37.20224 21.57342 0 0 -23.06348 -6.188018 16.92051 21.80509
0.7661634 97.99455 14.2219 -0.7591637 1.814847 1.550735 5.436879 -30.73716 5.279894 -0 22.20935 -0 -6.01326 -7.954844 -4.120963 -4.603038 16.01829 -20.13665 -0 7.385176 -0 -5.50009 -25.95972 15.05232 -2.571074 -0.6036288 2.397374 2.775288 6.08688 -8.196091 1.520486 21.56273 7.745509 4.146444 -24.69447 9.189118 5.524377 -16.29341 10.52857 86.53458 34.36919 -21.99652 -0 0 13.69 -8.623546 10.03638 4.73282 6.566508 -20.12418 -1.616955 -93.66684 36.38754 20.3363 0 0 -23.44928 -5.126674 16.80808 20.6068
0.7467621 97.10741 17.99752 -1.411064 2.429419 2.085065 6.331273 -32.55797 4.941342 -0 20.65124 -0 -6.365209 -6.456152 -3.922446 -4.03097 16.60303 -18.99574 -0 9.834897 -0 -6.909226 -25.16435 13.3002 -1.949252 -0.2348732 1.96457 2.913883 5.913515 -8.346928 1.419131 21.255 7.905999 4.240432 -24.9985 9.161048 5.594328 -15.68417 10.56238 86.71039 34.65584 -22.16766 -0 0 12.78428 -8.92994 10.55482 4.924144 6.583346 -20.28254 -1.609823 -92.66622 35.42631 19.16578 0 0 -23.71716 -4.038357 16.52441 19.43737
